 <svg
        width="150"
        height="100"
        viewBox="0 0 273 152"
        fill="none"
        xmlns="http://www.w3.org/2000/svg"
      >
        <path
          d="M94 8C94 3.58172 97.5817 0 102 0H171C175.418 0 179 3.58172 179 8V144C179 148.418 175.418 152 171 152H102C97.5817 152 94 148.418 94 144V8Z"
          fill="#0047AB"
        />
        <path
          d="M188 76C188 71.5817 191.582 68 196 68H265C269.418 68 273 71.5817 273 76V144C273 148.418 269.418 152 265 152H196C191.582 152 188 148.418 188 144V76Z"
          fill="#0047AB"
        />
        <path
          d="M0 42C0 37.5817 3.58172 34 8 34H77C81.4183 34 85 37.5817 85 42V144C85 148.418 81.4183 152 77 152H8C3.58172 152 0 148.418 0 144V42Z"
          fill="#0047AB"
        />
        <path
          d="M132.636 20.296V16.48H139.284V34H135.012V20.296H132.636Z"
          fill="white"
        />
        <path
          d="M36.5805 64.712C37.1245 64.28 37.3725 64.08 37.3245 64.112C38.8925 62.816 40.1245 61.752 41.0205 60.92C41.9325 60.088 42.7005 59.216 43.3245 58.304C43.9485 57.392 44.2605 56.504 44.2605 55.64C44.2605 54.984 44.1085 54.472 43.8045 54.104C43.5005 53.736 43.0445 53.552 42.4365 53.552C41.8285 53.552 41.3485 53.784 40.9965 54.248C40.6605 54.696 40.4925 55.336 40.4925 56.168H36.5325C36.5645 54.808 36.8525 53.672 37.3965 52.76C37.9565 51.848 38.6845 51.176 39.5805 50.744C40.4925 50.312 41.5005 50.096 42.6045 50.096C44.5085 50.096 45.9405 50.584 46.9005 51.56C47.8765 52.536 48.3645 53.808 48.3645 55.376C48.3645 57.088 47.7805 58.68 46.6125 60.152C45.4445 61.608 43.9565 63.032 42.1485 64.424H48.6285V67.76H36.5805V64.712Z"
          fill="white"
        />
        <path
          d="M224.458 89.424C224.522 87.712 225.082 86.392 226.138 85.464C227.194 84.536 228.626 84.072 230.434 84.072C231.634 84.072 232.658 84.28 233.506 84.696C234.37 85.112 235.018 85.68 235.45 86.4C235.898 87.12 236.122 87.928 236.122 88.824C236.122 89.88 235.858 90.744 235.33 91.416C234.802 92.072 234.186 92.52 233.482 92.76V92.856C234.394 93.16 235.114 93.664 235.642 94.368C236.17 95.072 236.434 95.976 236.434 97.08C236.434 98.072 236.202 98.952 235.738 99.72C235.29 100.472 234.626 101.064 233.746 101.496C232.882 101.928 231.85 102.144 230.65 102.144C228.73 102.144 227.194 101.672 226.042 100.728C224.906 99.784 224.306 98.36 224.242 96.456H228.226C228.242 97.16 228.442 97.72 228.826 98.136C229.21 98.536 229.77 98.736 230.506 98.736C231.13 98.736 231.61 98.56 231.946 98.208C232.298 97.84 232.474 97.36 232.474 96.768C232.474 96 232.226 95.448 231.73 95.112C231.25 94.76 230.474 94.584 229.402 94.584H228.634V91.248H229.402C230.218 91.248 230.874 91.112 231.37 90.84C231.882 90.552 232.138 90.048 232.138 89.328C232.138 88.752 231.978 88.304 231.658 87.984C231.338 87.664 230.898 87.504 230.338 87.504C229.73 87.504 229.274 87.688 228.97 88.056C228.682 88.424 228.514 88.88 228.466 89.424H224.458Z"
          fill="white"
        />
      </svg>