<?xml version="1.0" encoding="UTF-8"?>
<svg id="Layer_1" data-name="Layer 1" xmlns="http://www.w3.org/2000/svg" viewBox="0 0 800 733.31">
  <defs>
    <style>
      .cls-1 {
        fill: #e8aa3d;
      }

      .cls-1, .cls-2, .cls-3, .cls-4, .cls-5, .cls-6, .cls-7 {
        stroke-width: 0px;
      }

      .cls-2 {
        fill: #42bac6;
      }

      .cls-3 {
        fill: #ffce54;
      }

      .cls-4 {
        fill: #ad3636;
      }

      .cls-5 {
        fill: #5aa658;
      }

      .cls-6 {
        fill: #434a54;
      }

      .cls-7 {
        fill: #f6bb42;
      }
    </style>
  </defs>
  <path class="cls-7" d="M400,300c-9.23,0-16.68-7.47-16.68-16.68v-66.66c0-9.2,7.45-16.66,16.68-16.66s16.65,7.46,16.65,16.66v66.66c0,9.2-7.47,16.68-16.65,16.68Z"/>
  <path class="cls-6" d="M483.32,266.66h-166.68c-9.2,0-16.65,7.46-16.65,16.66v66.67c0,9.2,7.45,16.66,16.65,16.66h166.68c9.2,0,16.68-7.46,16.68-16.66v-66.67c0-9.2-7.47-16.66-16.68-16.66Z"/>
  <path class="cls-2" d="M750,533.31h-233.35c-9.2,0-16.65,7.47-16.65,16.7v166.65c0,9.2,7.45,16.65,16.65,16.65h233.35c9.18,0,16.65-7.45,16.65-16.65v-166.65c0-9.23-7.47-16.7-16.65-16.7Z"/>
  <path class="cls-4" d="M283.32,466.66H50c-9.23,0-16.67,7.47-16.67,16.65v233.35c0,9.2,7.45,16.65,16.67,16.65h233.33c9.2,0,16.68-7.45,16.68-16.65v-233.35c0-9.18-7.47-16.65-16.68-16.65Z"/>
  <path class="cls-5" d="M516.65,333.32h-233.32c-9.2,0-16.67,7.47-16.67,16.68v366.66c0,9.2,7.47,16.65,16.67,16.65h233.33c9.2,0,16.68-7.45,16.68-16.65v-366.66c0-9.2-7.47-16.68-16.68-16.68Z"/>
  <path class="cls-6" d="M783.32,733.31H16.65c-9.2,0-16.65-7.45-16.65-16.65s7.45-16.65,16.65-16.65h766.67c9.2,0,16.68,7.44,16.68,16.65s-7.47,16.65-16.68,16.65Z"/>
  <g>
    <path class="cls-7" d="M313.35,183.34c-1.93,0-3.91-.34-5.83-1.08-73-27.37-89.97-125.4-90.65-129.55-.78-4.83.59-9.77,3.74-13.5,3.17-3.72,7.81-5.88,12.72-5.88h66.67c9.18,0,16.65,7.47,16.65,16.67s-7.47,16.66-16.65,16.66h-45.39c7.84,25.87,26.44,70.08,64.6,84.4,8.62,3.22,12.99,12.83,9.77,21.45-2.52,6.69-8.87,10.83-15.63,10.83Z"/>
    <path class="cls-7" d="M486.6,183.34c-6.74,0-13.09-4.14-15.6-10.83-3.22-8.62,1.15-18.23,9.77-21.45,38.35-14.39,56.88-58.56,64.65-84.4h-45.41c-9.23,0-16.68-7.46-16.68-16.66s7.45-16.67,16.68-16.67h66.65c4.91,0,9.55,2.16,12.72,5.88,3.15,3.74,4.52,8.67,3.74,13.5-.68,4.15-17.65,102.19-90.65,129.55-1.93.73-3.91,1.08-5.86,1.08Z"/>
  </g>
  <path class="cls-3" d="M500,0h-200c-9.23,0-16.68,7.46-16.68,16.66v100c0,64.33,52.32,116.66,116.67,116.66s116.65-52.33,116.65-116.66V16.66c0-9.2-7.47-16.66-16.65-16.66Z"/>
  <path class="cls-1" d="M400,150c-9.23,0-16.68-7.47-16.68-16.68v-50c0-9.2,7.45-16.66,16.68-16.66s16.65,7.46,16.65,16.66v50c0,9.2-7.47,16.68-16.65,16.68Z"/>
</svg>