<?xml version="1.0" encoding="UTF-8"?>
<svg id="Calque_2" data-name="Calque 2" xmlns="http://www.w3.org/2000/svg" viewBox="0 0 134.25 137.25">
  <defs>
    <style>
      .cls-1 {
        fill: #fec800;
        stroke-width: 0px;
      }
    </style>
  </defs>
  <g id="Calque_1-2" data-name="Calque 1">
    <g>
      <path class="cls-1" d="M51.4,127.32c-.09-1.98-.2-2.5-.3-3.68-.08-.9-.1-1.53-.13-2.03-.14-2.98-.22-4.46-.58-6.13-.33-1.5-.54-2.41-1.29-3.35-.15-.19-.78-.95-2.3-1.74-1.19-.62-2.44-1-5.02-1.36-1.5-.21-3.51-.42-5.91-.47H4.48c2.59,3.6,5.57,6.89,8.83,9.88v-.71h13c.28-2.5,2.37-4.45,4.94-4.45,2.76,0,5,2.24,5,5s-2.24,5-5,5c-2.44,0-4.46-1.75-4.9-4.05h-12.17c10.37,9.17,23.58,15.28,37.23,18.03.18-3.93.12-7.29,0-9.93Z"/>
      <path class="cls-1" d="M104.69,11.09C76.21-6.55,40.35-2.62,18.7,19.15,9.09,28.81,3.37,40.9,1.11,53.33h14.24c.44-2.31,2.47-4.05,4.9-4.05,2.76,0,5,2.24,5,5s-2.24,5-5,5c-2.57,0-4.67-1.95-4.94-4.45H.85c-.39,2.48-.65,4.96-.77,7.44h14.17v1.5H.03c-.27,9.8,1.53,19.45,5.24,27.93.44,1.01.92,2,1.41,2.98v-.75h48.61c.18-2.6,2.32-4.65,4.97-4.65s5,2.24,5,5-2.24,5-5,5c-2.36,0-4.33-1.64-4.85-3.85H7.06c1.03,1.96,2.18,3.82,3.4,5.64h32.16c1.89.13,3.77.25,5.66.38,1.22.08,1.96.27,2.26.32,2.44.43,3.68.64,4.91,1.38.68.4,1.75,1.2,2.68,2.74.23.6.54,1.5.83,2.62.4,1.57.55,2.88.64,4.02.2,2.41.38,6.76.39,12.32v6.72c5.57,1.01,11.19,1.46,16.71,1.33v-16.31h1.5v16.26c2.25-.09,4.48-.27,6.67-.56v-19.93c-2.4-.36-4.25-2.42-4.25-4.92,0-2.76,2.24-5,5-5s5,2.24,5,5c0,2.5-1.85,4.56-4.25,4.92v19.7c1.74-.27,3.45-.62,5.14-1.01v-11.97h1.5v11.62c7.28-1.86,14.02-4.91,19.73-9.25,14.64-11.1,19.64-28.23,21.52-37.83C57.8,152,10.32,8.73,104.69,11.09Z"/>
    </g>
  </g>
</svg>